<svg width="50" height="50" viewBox="0 0 50 50" fill="none" xmlns="http://www.w3.org/2000/svg">
    <path d="M0 25C0 11.193 11.193 0 25 0s25 11.193 25 25-11.193 25-25 25S0 38.807 0 25z" fill="#fff"/>
    <path fill-rule="evenodd" clip-rule="evenodd" d="M25 1.5C12.021 1.5 1.5 12.021 1.5 25S12.021 48.5 25 48.5 48.5 37.979 48.5 25 37.979 1.5 25 1.5zM25 0C11.193 0 0 11.193 0 25s11.193 25 25 25 25-11.193 25-25S38.807 0 25 0z" fill="#248DE4"/>
    <path fill-rule="evenodd" clip-rule="evenodd" d="M40 25c0-8.284-6.716-15-15-15V0c13.807 0 25 11.193 25 25S38.807 50 25 50V40c8.284 0 15-6.716 15-15z" fill="#248DE4"/>
    <path fill-rule="evenodd" clip-rule="evenodd" d="M25 12c-7.18 0-13 5.82-13 13s5.82 13 13 13 13-5.82 13-13-5.82-13-13-13zm0-2c-8.284 0-15 6.716-15 15 0 8.284 6.716 15 15 15 8.284 0 15-6.716 15-15 0-8.284-6.716-15-15-15z" fill="#248DE4"/>
    <path d="m16.5 30.29 8.801-12.152 1.718 2.87-6.594 9.281H16.5z" fill="#248DE4"/>
    <path d="m25.118 18.139 8.595 12.15h-3.719l-6.587-9.387 1.71-2.763z" fill="#248DE4"/>
</svg>
